# xmcd CD database file
#
# Track frame offsets:
#	150
#	19915
#	33167
#	46432
#	59350
#	72100
#	88180
#	101717
#	115054
#	127701
#	141122
#	156874
#	170315
#	185418
#	197878
#	212589
#	227796
#	242981
#	257357
#	276642
#	296778
#	317444
#
# Disc length: 4406 seconds
#
# Revision: 0
# Processed by: cddbd v1.5PL3 Copyright (c) Steve Scherf et al.
# Submitted via: CDex 1.51
#
DISCID=40113416
DTITLE=Bix Beiderbecke - Bix Restored Volume 2 CD 5
DYEAR=1900
DGENRE=Jazz
TTITLE0=Washboard Blues
TTITLE1=Changes - 2
TTITLE2=Changes - 3
TTITLE3=(What Are You Waiting For) Mary - 2
TTITLE4=(What Are You Waiting For) Mary - 4
TTITLE5=Ramona
TTITLE6=Smile
TTITLE7=Lonely Melody - 1
TTITLE8=Lonely Melody - 3
TTITLE9=O Ya Ya
TTITLE10=Dolly Dimples
TTITLE11=There'll Come A Time
TTITLE12=Jubilee
TTITLE13=Parade Of The Wooden Soldiers
TTITLE14=Ol' Man River
TTITLE15=San - 6
TTITLE16=San - 7
TTITLE17=Mississippi Mud
TTITLE18=Together
TTITLE19=My Heart Stood Still - 1
TTITLE20=My Heart Stood Still - 3
TTITLE21=Smile - 4
EXTD=
EXTT0=
EXTT1=
EXTT2=
EXTT3=
EXTT4=
EXTT5=
EXTT6=
EXTT7=
EXTT8=
EXTT9=
EXTT10=
EXTT11=
EXTT12=
EXTT13=
EXTT14=
EXTT15=
EXTT16=
EXTT17=
EXTT18=
EXTT19=
EXTT20=
EXTT21=
PLAYORDER=
